<svg xmlns="http://www.w3.org/2000/svg" viewBox="0 0 32 32" width="48" height="48">
  <defs>
    <linearGradient id="g1" x1="0" y1="0.5" x2="1" y2="0.5">
      <stop offset="0%" stop-color="#1E73B8"/>
      <stop offset="100%" stop-color="#00BF9E"/>
    </linearGradient>
    <linearGradient id="g2" x1="1" y1="0.5" x2="0" y2="0.5">
      <stop offset="0%" stop-color="#1E73B8"/>
      <stop offset="100%" stop-color="#00BF63"/>
    </linearGradient>
  </defs>
  <!-- Right loop -->
  <path d="M16 12.5C18.5 9.5 21.5 7.5 24.5 7.5 28 7.5 30.5 10 30.5 13.5 30.5 17 28 19.5 24.5 19.5 21.5 19.5 18.5 17.5 16 14.5" fill="none" stroke="url(#g1)" stroke-width="3.2" stroke-linecap="round"/>
  <!-- Left loop -->
  <path d="M16 14.5C13.5 17.5 10.5 19.5 7.5 19.5 4 19.5 1.5 17 1.5 13.5 1.5 10 4 7.5 7.5 7.5 10.5 7.5 13.5 9.5 16 12.5" fill="none" stroke="url(#g2)" stroke-width="3.2" stroke-linecap="round"/>
</svg>
